<svg xmlns="http://www.w3.org/2000/svg" viewBox="0 0 500 280"><defs><style>.C{fill:#49021f;}.D{fill:#f36;}</style></defs><g id="Layer_6" data-name="Layer 6"><g id="Layer_5" data-name="Layer 5"><polyline class="C" points="76 116.41 43 149.81 77.2 118.81"/><path class="C" d="M52,180.94a32.57,32.57,0,0,1,11,1.76l4,0a4,4,0,0,1,3.28-1.72H72a4,4,0,0,1,3.2,1.62L217.5,181a4,4,0,0,1,1.93-.89l16.76-2.74a4.6,4.6,0,0,1,.64,0,4,4,0,0,1,2.66,1l.77.68a4,4,0,0,1,1.34,3v5.26h18.8l8.3-5.7a4.39,4.39,0,0,1,2.2-.7l98.15,1.12a10.71,10.71,0,0,1,6.59-2.27,11.17,11.17,0,0,1,6.95,2.42l99.31,1.13-.9-9.1S390.9,166,290.5,166c-31.9,0-40.5,17.9-40.5,17.9S241.5,166,209.5,166C109,166,19,174.11,19,174.11l-.9,9.1L39.66,183A37.64,37.64,0,0,1,52,180.94Z"/><polyline class="C" points="393.4 117.01 423.9 116.41 456.9 149.81 422.7 118.81 393.1 120.01"/><path class="D" d="M446.7,66.11a51.32,51.32,0,0,0-9.6-.1c-13,1.2-12.8,1.3-15.6.8-7.5-1.2-9.3-7.1-17.3-13.8A54.18,54.18,0,0,0,381,42a123.19,123.19,0,0,0-7.5-26.7,2.54,2.54,0,0,0-3.3-1.4.35.35,0,0,0-.2.1,33.42,33.42,0,0,0-13.6,12.5c-3.5,6.2-2.3,9.4-6.8,16.5-4.1,6.4-6.8,6.3-11.1,12.4-1,1.5-6.1,9.2-6.5,16.9-.7,13.1,13.9,13.4,25.5,37.4,1.8,3.7,3,7.9,4.9,12.2a48.93,48.93,0,0,1-9.2-14.5c-5.1-11.1-27.7-22.4-26.1-35.1A32.33,32.33,0,0,1,334,57a52.84,52.84,0,0,0-21.4-11.4c-16.1-4.1-26.3,3.7-42.1,5.8-20.6,2.7-28.3-6.9-52-13.6-47.3-13.3-95.4,2.8-119.5,26.1a73.82,73.82,0,0,0-21.1,36c-11.6,47.4,17.9,57.5,44.8,65.5,24,7.1,67.2.9,97-2,14-.7,27-3,37.5,5.3,5.3,5.2,10.6,11.3,17.1,8.2,9.7-5.7,6.2-17-6-26.2-36.1-27.3-82.6,2.9-147.9-15.2,56.7,12.7,120.5-17.6,151.1,17.4,2.4.1,5,.1,8,0,2.3-.1,6.5-.4,9-3.6s2.4-8.8.5-12.3a12,12,0,0,0-2.6-2.9c-18.7-16.2-43.2-1.4-66.5-11.1-43.6-18.1-2.5-39.5,16.6-19.6-13.5-13.7-53-.3-16.8,14.3,27.6,11.1,50.4-4,66.7,16.3,8.3,1.4,15.7,3.9,23.9,5.7l2.7.5h0c29.2,5.3,38.9,10.6,46.3,16.2,3,2.3,2.5,2.5,6.4,6.7s4.2,10.4,10.3,12.9c5.7,2.3,14.3,2,17.7-3.1,3.1-4.6.5-11.1-1.6-15.3a62,62,0,0,0-13.1-14.4,77.75,77.75,0,0,0-25.1-14.1c-4.7-1.6-9.7-2.3-14.2-4.6-7-3.4-5.4-8.5.7-11.8-1.9,1.7-5.5,5-3.5,7.4,3,3.6,12.1,4,18,6a74.87,74.87,0,0,1,18.1,8.5,30.56,30.56,0,0,0,11.7,3.9c5.3.4,9.1-2.1,15.9-6.1,18.3-11,17.2-8.7,19.7-11.3,11.2-11.7,1.1-25.3,11.7-37.2,10.3-11.6,27.8-10.8,27.5-14.1C459.1,67.31,449.9,66.41,446.7,66.11ZM280,150.21a.55.55,0,0,1-.3.5,3.34,3.34,0,0,1-2.6,0c-3.1-.6-5.1-2.6-5.1-3.1.4-.4,4,.2,6.5,1.4,1.3.6,1.4,1,1.5,1.2Zm7-4a.55.55,0,0,1-.3.5c-.6.6-2,.5-2.6.5a7.8,7.8,0,0,1-5.2-2.3c-.2-.2-.3-.4-.2-.5h0c.2-.5,4-.6,6.8.5.6.2,1.5.6,1.6,1.1a.35.35,0,0,1-.1.2Zm-1.6-6.2c.6.1,2,.4,2.4,1.2a1.27,1.27,0,0,1,.1.6v.2c-.2.4-1.2.6-1.9.6-3,.2-6.5-1-6.5-1.5h0a1.2,1.2,0,0,1,.4-.4,8,8,0,0,1,5.5-.7Zm-5.6-5.5a3.93,3.93,0,0,1,2.5.8.75.75,0,0,1,.1.5c-.1.4-.8.6-1.8.8-2.8.4-6.3-.1-6.7-.6C274.1,135.51,276.7,134.21,279.8,134.51Zm-12.9,6.9.1-.5c.3-2.2,1.1-3.3,2.2-3.6a3.22,3.22,0,0,1,2.5.4v.2a.37.37,0,0,1-.1.3,1.42,1.42,0,0,0-.2.6.78.78,0,0,0,.2.8,2.93,2.93,0,0,0,1.6.7,2.39,2.39,0,0,1,1.4.5.64.64,0,0,1,0,.6,1.42,1.42,0,0,1-.2.6l-.1.1v.7a.91.91,0,0,1-.3.7,3.79,3.79,0,0,1-1.5,0,2.92,2.92,0,0,0-1.6.1.84.84,0,0,0-.4.7v1a2.68,2.68,0,0,1-2.6-.1C266.7,144.31,266.8,142.71,266.9,141.41Zm103.4-60.8a23.08,23.08,0,0,0-7-2.7c7.6-.6,15.3,2.8,18.8,8.9a17.31,17.31,0,0,1,1.6,12,37.72,37.72,0,0,0-4.6-10.5A25.83,25.83,0,0,0,370.3,80.61Zm19,39.6c-.9,1-2.2.2-3.5,1.3a6.42,6.42,0,0,1-1.3,1c-.1,0-1.3.7-1.6.3s.6-.9.9-2.2c.4-1.8-1.2-2.7-.6-4.3a2.76,2.76,0,0,1,1.1-1.3c1.8-.9,5.5.9,5.7,3a2.68,2.68,0,0,1-.7,2.2Zm19.2-11.1a14.13,14.13,0,0,0-8.3,1.4,8.72,8.72,0,0,1,8.5-3.9,10.2,10.2,0,0,1,7.7,5.3,22,22,0,0,0-7.9-2.8Z"/></g><path class="D" d="M67.94,189.39l2.31-4.45H72v19.84h-.85c-1.54,0-2.14-1.12-3-3.68C66.15,195,62.64,188,53.24,188c-11.37,0-16.16,10.52-16.16,27.7,0,18.37,6,25.9,16.5,25.9,9.15,0,13.68-7,15.64-13,1.29-3.93,1.71-6.83,3.68-6.83h.94v22.73h-2l-2.56-5a32.69,32.69,0,0,1-18,5.21c-18.64,0-30-12.39-30-29.14S33.07,184.94,52,184.94C57.86,184.94,62.39,186.23,67.94,189.39Zm28.21,20.69a6.7,6.7,0,0,1,2.22,5A4.64,4.64,0,0,1,93.75,220c-2.82,0-4.27-2.22-4.27-4.62,0-3.59,3.08-10.42,16.07-10.42,14.7,0,17.18,8.72,17.18,16.41V235c0,4.1,1,4.87,4.53,5.38,0,.77.17,1.63.17,2.4a20.87,20.87,0,0,1-8.46,2c-4,0-7.52-.85-8-5.72h-.34a18.24,18.24,0,0,1-14.27,5.9c-5.82,0-10.77-2.91-10.77-9.15,0-10.26,11.11-13.34,20.68-13.34a39.76,39.76,0,0,1,4.28.26v-5c0-5.21-2.31-9.4-8-9.4A11.07,11.07,0,0,0,96.15,210.08Zm14.36,25.47v-10c-9.49,0-12.57,3.33-12.57,8,0,3.93,2,5.64,5.21,5.64A9.94,9.94,0,0,0,110.51,235.55Zm29.05-1.8V209.31h-5.12v-2.4l5.64-1.37L149.31,193h2.48V206.4h10.43v2.91H151.79v22.82c0,5.21,2.22,6.67,5.72,6.67a34.69,34.69,0,0,0,5.39-.6l.68,2.22a25.23,25.23,0,0,1-13.67,4.19C141.53,244.61,139.56,239.91,139.56,233.75Zm43.34-23.67a6.66,6.66,0,0,1,2.22,5A4.64,4.64,0,0,1,180.5,220c-2.82,0-4.27-2.22-4.27-4.62,0-3.59,3.08-10.42,16.07-10.42,14.7,0,17.18,8.72,17.18,16.41V235c0,4.1,1,4.87,4.53,5.38,0,.77.17,1.63.17,2.4a20.87,20.87,0,0,1-8.46,2c-4,0-7.52-.85-8-5.72h-.35c-4.78,5.13-10.08,5.9-14.27,5.9-5.81,0-10.77-2.91-10.77-9.15,0-10.26,11.11-13.34,20.68-13.34a39.61,39.61,0,0,1,4.28.26v-5c0-5.21-2.31-9.4-7.95-9.4A11.07,11.07,0,0,0,182.9,210.08Zm14.36,25.47v-10c-9.49,0-12.57,3.33-12.57,8,0,3.93,2,5.64,5.22,5.64A9.94,9.94,0,0,0,197.26,235.55Zm40.34-.09c0,3.93.77,4.45,3.59,5.39,1,.25,1.28.85,1.28,1.79v1H220.25v-1.11a1.83,1.83,0,0,1,1.45-1.88c2.91-.86,3.59-1.37,3.59-5.3V191.53c0-5.9-5.21-3.34-5.21-6.24V184l16.75-2.73.77.68Zm22.82-25.38a6.66,6.66,0,0,1,2.22,5A4.63,4.63,0,0,1,258,220c-2.82,0-4.28-2.22-4.28-4.62,0-3.59,3.08-10.42,16.07-10.42,14.71,0,17.19,8.72,17.19,16.41V235c0,4.1,1,4.87,4.53,5.38,0,.77.17,1.63.17,2.4a20.92,20.92,0,0,1-8.47,2c-4,0-7.52-.85-8-5.72h-.34c-4.79,5.13-10.09,5.9-14.28,5.9-5.81,0-10.77-2.91-10.77-9.15,0-10.26,11.11-13.34,20.69-13.34a39.58,39.58,0,0,1,4.27.26v-5c0-5.21-2.31-9.4-7.95-9.4A11.07,11.07,0,0,0,260.42,210.08Zm14.36,25.47v-10c-9.49,0-12.56,3.33-12.56,8,0,3.93,2,5.64,5.21,5.64A9.92,9.92,0,0,0,274.78,235.55Zm20.51,20.77a5.59,5.59,0,0,1,5.64-5.39c4.36,0,6.42,3.68,7.1,6,2.38-.85,5.68-4.4,8.07-10.56,0,0-9.61-21.75-13.63-31.41-2.48-5.9-6.24-3.85-6.24-7.18v-1.28h23.08v1.45c0,2.31-4.19,1.71-4.19,4.53a7.13,7.13,0,0,0,.69,2.65,136,136,0,0,1,6.24,17.35h.51l6.58-16.92a8,8,0,0,0,.77-3c0-3.59-5-1.88-5-4.61v-1.45h15.56v1.36c0,2.91-4.71.26-8.12,8.21L318.8,247.34c-3.42,7.78-8.55,14.88-16.07,14.88C297.86,262.22,295.29,259.82,295.29,256.32Z"/><path class="D" d="M382.48,239.74c0,4.78-.77,11-3.85,15a19.71,19.71,0,0,1-15.39,7.52c-3.25,0-7.78-1.37-7.78-5.64a5.23,5.23,0,0,1,5.3-5c4,0,6.24,3.59,6.5,7.61,2.56-1.37,3-4.1,3-6.5V215.2c0-5.89-5.21-3.33-5.21-6.24v-1.28c5.55-1,11.11-2.05,16.75-3,.26.17.43.51.69.68Zm.25-49.15a7,7,0,1,1-13.93,0,7,7,0,0,1,13.93,0ZM412.82,205c9.57,0,15.39,3.42,15.39,8.29a4.41,4.41,0,0,1-4.36,4.53,5.66,5.66,0,0,1-5.73-5.89,8.37,8.37,0,0,1,.68-3.34,11.7,11.7,0,0,0-4.19-.68c-2.9,0-6.49,1.71-6.49,5.21,0,7.78,22.14,7.87,22.14,20.18,0,7.95-8.81,11.36-18.72,11.36-10.77,0-16.67-3.67-16.67-8.46a4.86,4.86,0,0,1,4.7-4.7c3.59,0,5.73,3,5.73,6.58a9.41,9.41,0,0,1-.43,3,15,15,0,0,0,5,.94c3,0,7.87-1.79,7.87-5.64,0-7.78-21.37-7.78-21.37-19.49C396.41,209.48,403.16,205,412.82,205Zm48.72,15.9,4.27-6.24c.94-1.45,1.46-2.31,1.46-3.25,0-2.39-4.36-1.36-4.36-3.76V206.4h15.72v1.2c0,2.56-4.36.77-9.91,8.12l-5.64,7.43,8.55,12.14c4.61,6.58,8.12,4.87,8.12,7.27v1.11H456.24v-1.11c0-2.31,3.67-1.2,3.67-3.85a7.36,7.36,0,0,0-1.71-3.25l-5-7.18-5.13,7.1a6.31,6.31,0,0,0-1.45,3.33c0,2.48,4.36,1.54,4.36,3.68v1.28H435.21v-1.11c0-2.57,4.36-.77,9.92-8.12l6.41-8.47-7.78-11.19c-4.45-6.33-7.52-4.79-7.52-7.18v-1.2h22.91v1.11c0,2.57-3.59,1.37-3.59,4a6.58,6.58,0,0,0,1.62,3.08ZM348.12,231.62a6.37,6.37,0,1,1-6.33,6.41A6.35,6.35,0,0,1,348.12,231.62Z"/></g></svg>