<svg xmlns="http://www.w3.org/2000/svg" viewBox="0 0 500 280"><defs><style>.A{fill:#506070;}.B{fill:#cc8050;}</style></defs><g><polyline class="A" points="76 110.2 43 143.6 77.2 112.6"/><path class="A" d="M481.9,177l-.9-9.1s-90.1-8.1-190.5-8.1c-31.9,0-40.5,17.9-40.5,17.9s-8.5-17.9-40.5-17.9C109,159.8,19,167.9,19,167.9l-.9,9.1,16.3-.2a43.66,43.66,0,0,1,28-9.4,41,41,0,0,1,19.1,4.5,1.06,1.06,0,0,0,1.5-.5l1.1-2.1a3.45,3.45,0,0,1,3.3-1.9h.4a3.59,3.59,0,0,1,3.6,3.6v5.2l138-1.6a3.41,3.41,0,0,1,2.2.7l8.3,5.7h20.5l8.3-5.7a4.39,4.39,0,0,1,2.2-.7l39.2.5c-1.4-.4-4.3-1.3-4.3-4.7v-1.6a2.46,2.46,0,0,1,2.1-2.4l22.3-3.6h.4a2.27,2.27,0,0,1,1.6.6l.6.6a3.57,3.57,0,0,1,1.2,2.7v8.9Z"/><polyline class="A" points="393.4 110.8 423.9 110.2 456.9 143.6 422.7 112.6 393.1 113.8"/><path class="B" d="M446.7,59.9a51.32,51.32,0,0,0-9.6-.1c-13,1.2-12.8,1.3-15.6.8-7.5-1.2-9.3-7.1-17.3-13.8a54.18,54.18,0,0,0-23.2-11,123.19,123.19,0,0,0-7.5-26.7,2.54,2.54,0,0,0-3.3-1.4.35.35,0,0,0-.2.1,33.42,33.42,0,0,0-13.6,12.5c-3.5,6.2-2.3,9.4-6.8,16.5-4.1,6.4-6.8,6.3-11.1,12.4-1,1.5-6.1,9.2-6.5,16.9-.7,13.1,13.9,13.4,25.5,37.4,1.8,3.7,3,7.9,4.9,12.2a48.93,48.93,0,0,1-9.2-14.5c-5.1-11.1-27.7-22.4-26.1-35.1A32.33,32.33,0,0,1,334,50.8a52.84,52.84,0,0,0-21.4-11.4c-16.1-4.1-26.3,3.7-42.1,5.8-20.6,2.7-28.3-6.9-52-13.6C171.2,18.3,123.1,34.4,99,57.7a73.82,73.82,0,0,0-21.1,36c-11.6,47.4,17.9,57.5,44.8,65.5,24,7.1,67.2.9,97-2,14-.7,27-3,37.5,5.3,5.3,5.2,10.6,11.3,17.1,8.2,9.7-5.7,6.2-17-6-26.2-36.1-27.3-82.6,2.9-147.9-15.2,56.7,12.7,120.5-17.6,151.1,17.4,2.4.1,5,.1,8,0,2.3-.1,6.5-.4,9-3.6s2.4-8.8.5-12.3a12,12,0,0,0-2.6-2.9c-18.7-16.2-43.2-1.4-66.5-11.1-43.6-18.1-2.5-39.5,16.6-19.6-13.5-13.7-53-.3-16.8,14.3,27.6,11.1,50.4-4,66.7,16.3,8.3,1.4,15.7,3.9,23.9,5.7l2.7.5h0c29.2,5.3,38.9,10.6,46.3,16.2,3,2.3,2.5,2.5,6.4,6.7s4.2,10.4,10.3,12.9c5.7,2.3,14.3,2,17.7-3.1,3.1-4.6.5-11.1-1.6-15.3A62,62,0,0,0,379,137a77.75,77.75,0,0,0-25.1-14.1c-4.7-1.6-9.7-2.3-14.2-4.6-7-3.4-5.4-8.5.7-11.8-1.9,1.7-5.5,5-3.5,7.4,3,3.6,12.1,4,18,6a74.87,74.87,0,0,1,18.1,8.5,30.56,30.56,0,0,0,11.7,3.9c5.3.4,9.1-2.1,15.9-6.1,18.3-11,17.2-8.7,19.7-11.3,11.2-11.7,1.1-25.3,11.7-37.2,10.3-11.6,27.8-10.8,27.5-14.1C459.1,61.1,449.9,60.2,446.7,59.9ZM280,144a.55.55,0,0,1-.3.5,3.34,3.34,0,0,1-2.6,0c-3.1-.6-5.1-2.6-5.1-3.1.4-.4,4,.2,6.5,1.4,1.3.6,1.4,1,1.5,1.2Zm7-4a.55.55,0,0,1-.3.5c-.6.6-2,.5-2.6.5a7.8,7.8,0,0,1-5.2-2.3c-.2-.2-.3-.4-.2-.5h0c.2-.5,4-.6,6.8.5.6.2,1.5.6,1.6,1.1a.35.35,0,0,1-.1.2Zm-1.6-6.2c.6.1,2,.4,2.4,1.2a1.27,1.27,0,0,1,.1.6v.2c-.2.4-1.2.6-1.9.6-3,.2-6.5-1-6.5-1.5h0a1.2,1.2,0,0,1,.4-.4,8,8,0,0,1,5.5-.7Zm-5.6-5.5a3.93,3.93,0,0,1,2.5.8.75.75,0,0,1,.1.5c-.1.4-.8.6-1.8.8-2.8.4-6.3-.1-6.7-.6C274.1,129.3,276.7,128,279.8,128.3Zm-12.9,6.9.1-.5c.3-2.2,1.1-3.3,2.2-3.6a3.22,3.22,0,0,1,2.5.4v.2a.37.37,0,0,1-.1.3,1.42,1.42,0,0,0-.2.6.78.78,0,0,0,.2.8,2.93,2.93,0,0,0,1.6.7,2.39,2.39,0,0,1,1.4.5.64.64,0,0,1,0,.6,1.42,1.42,0,0,1-.2.6l-.1.1v.7a.91.91,0,0,1-.3.7,3.79,3.79,0,0,1-1.5,0,2.92,2.92,0,0,0-1.6.1.84.84,0,0,0-.4.7v1a2.68,2.68,0,0,1-2.6-.1C266.7,138.1,266.8,136.5,266.9,135.2ZM370.3,74.4a23.08,23.08,0,0,0-7-2.7c7.6-.6,15.3,2.8,18.8,8.9a17.31,17.31,0,0,1,1.6,12,37.72,37.72,0,0,0-4.6-10.5A25.83,25.83,0,0,0,370.3,74.4Zm19,39.6c-.9,1-2.2.2-3.5,1.3a6.42,6.42,0,0,1-1.3,1c-.1,0-1.3.7-1.6.3s.6-.9.9-2.2c.4-1.8-1.2-2.7-.6-4.3a2.76,2.76,0,0,1,1.1-1.3c1.8-.9,5.5.9,5.7,3a2.68,2.68,0,0,1-.7,2.2Zm19.2-11.1a14.13,14.13,0,0,0-8.3,1.4,8.72,8.72,0,0,1,8.5-3.9,10.2,10.2,0,0,1,7.7,5.3,22,22,0,0,0-7.9-2.8Z"/><path class="B" d="M83.4,175.7l3.1-5.9h2.3v26.4H87.7c-2,0-2.8-1.5-4-4.9C81,183.2,76.3,175,63.8,175c-15.1,0-21.5,12.8-21.5,35.7,0,24.4,7.9,33.3,21.9,33.3,12.1,0,18.2-8.2,20.8-16.1,1.7-5.2,2.3-9.1,4.9-9.1h1.3V249h0c-4,0-6-6.7-6-6.7a43.08,43.08,0,0,1-23.9,7c-24.8,0-39.9-16.5-39.9-38.7S37,169.9,62.3,169.9A39.5,39.5,0,0,1,83.4,175.7Z"/><path class="B" d="M126.5,203.2a8.94,8.94,0,0,1,3,6.7,6.16,6.16,0,0,1-5.8,6.5h-.4a5.68,5.68,0,0,1-5.7-5.6v-.5c0-4.8,4.1-13.9,21.4-13.9,19.6,0,22.9,11.6,22.9,21.8v17.9c0,5.5,1.4,6.5,6,7.2,0,1,.2,2.2.2,3.3a29.11,29.11,0,0,1-11.2,2.6c-5.3,0-10-1.1-10.7-7.6h-.5a23.9,23.9,0,0,1-19,7.8c-7.7,0-14.3-3.9-14.3-12.1,0-13.6,14.7-17.7,27.5-17.7a54.41,54.41,0,0,1,5.7.3v-6.5c0-6.9-3.1-12.5-10.6-12.5A15.35,15.35,0,0,0,126.5,203.2Zm19.1,33.9V223.8c-12.6,0-16.7,4.4-16.7,10.7,0,5.2,2.6,7.5,6.9,7.5a13.55,13.55,0,0,0,9.8-4.9Z"/><path class="B" d="M189.9,234.7V202.2h-6.8V199l7.5-1.8,12.3-16.7h3.3v17.8H220v3.9H206.2v30.3c0,6.9,2.9,8.9,7.6,8.9a44.08,44.08,0,0,0,7.2-.8l.9,3a33.63,33.63,0,0,1-18.2,5.6C192.5,249.1,189.9,242.9,189.9,234.7Z"/><path class="B" d="M253.2,203.2a8.51,8.51,0,0,1,2.9,6.7,6.16,6.16,0,0,1-5.8,6.5h-.4a5.68,5.68,0,0,1-5.7-5.6v-.5c0-4.8,4.1-13.9,21.3-13.9,19.6,0,22.9,11.6,22.9,21.8v17.9c0,5.5,1.4,6.5,6,7.2,0,1,.2,2.2.2,3.3a29.11,29.11,0,0,1-11.2,2.6c-5.3,0-10-1.1-10.7-7.6h-.5a23.9,23.9,0,0,1-19,7.8c-7.7,0-14.3-3.9-14.3-12.1,0-13.6,14.7-17.7,27.5-17.7a54.41,54.41,0,0,1,5.7.3v-6.5c0-6.9-3.1-12.5-10.6-12.5A14.93,14.93,0,0,0,253.2,203.2Zm19.1,33.9V223.8c-12.6,0-16.7,4.4-16.7,10.7,0,5.2,2.6,7.5,6.9,7.5a13.73,13.73,0,0,0,9.8-4.9Z"/><path class="B" d="M331.6,237c0,5.2,1,5.9,4.8,7.2a2,2,0,0,1,1.7,2.3h0v1.4H308.6v-1.5a2.47,2.47,0,0,1,1.9-2.5c3.9-1.1,4.8-1.8,4.8-7V178.6c0-7.8-6.9-4.4-6.9-8.3v-1.6l22.3-3.6,1,.9Z"/><path class="B" d="M367.6,203.2a8.51,8.51,0,0,1,2.9,6.7,6.16,6.16,0,0,1-5.8,6.5h-.4a5.68,5.68,0,0,1-5.7-5.6v-.5c0-4.8,4.1-13.9,21.3-13.9,19.5,0,22.9,11.6,22.9,21.8v17.9c0,5.5,1.4,6.5,6,7.2,0,1,.2,2.2.2,3.3a29.11,29.11,0,0,1-11.2,2.6c-5.3,0-10-1.1-10.7-7.6h-.5a24,24,0,0,1-19,7.8c-7.7,0-14.3-3.9-14.3-12.1,0-13.6,14.7-17.7,27.5-17.7a54.41,54.41,0,0,1,5.7.3v-6.5c0-6.9-3.1-12.5-10.6-12.5A14.93,14.93,0,0,0,367.6,203.2Zm19.1,33.9V223.8c-12.6,0-16.7,4.4-16.7,10.7,0,5.2,2.6,7.5,6.9,7.5a13.73,13.73,0,0,0,9.8-4.9Z"/><path class="B" d="M419.6,264.7a7.43,7.43,0,0,1,7.5-7.2c5.8,0,8.5,4.9,9.4,7.9,3.2-1.1,7.5-5.6,10.7-13.9,0,0-12.7-29-18.1-41.9-3.3-7.8-8.3-5.1-8.3-9.5v-1.7h30.8v1.9c0,3.1-5.6,2.3-5.6,6a10.64,10.64,0,0,0,.9,3.5,171.34,171.34,0,0,1,8.2,23.1h.7l8.7-22.5a10.72,10.72,0,0,0,1-4c0-4.8-6.7-2.5-6.7-6.1v-1.9h20.7v1.8c0,3.9-6.2.3-10.8,10.9l-18,41.6c-4.5,10.3-11.3,19.8-21.4,19.8C423,272.5,419.6,269.3,419.6,264.7Z"/></g></svg>